<?xml version="1.0" standalone="no"?><!DOCTYPE svg PUBLIC "-//W3C//DTD SVG 1.1//EN" "http://www.w3.org/Graphics/SVG/1.1/DTD/svg11.dtd"><svg t="1766732307097" class="icon" viewBox="0 0 1024 1024" version="1.1" xmlns="http://www.w3.org/2000/svg" p-id="6254" xmlns:xlink="http://www.w3.org/1999/xlink" width="200" height="200"><path d="M304.068 374.308c-0.044-2.66-0.068-5.328-0.068-8 0-156.388 79.508-287.048 185.104-317.368a82.372 82.372 0 0 1 45.792 0C640.492 79.26 720 209.92 720 366.308c0 2.672-0.024 5.34-0.068 8H304.068z" fill="#9BAAE7" p-id="6255"></path><path d="M305.08 334.892c9.812-142.192 85.556-257.64 183.968-285.936 75.736 50.76 129.688 142.26 140.824 249.464a33.148 33.148 0 0 1-33.004 36.304c-58.42 0.092-180.22 0.144-291.788 0.168z" fill="#BBC7F3" p-id="6256"></path><path d="M439.044 104.284a5.2 5.2 0 0 0-6.504-0.692c-15.716 11.524-80.22 65.792-84.624 185.312a27.148 27.148 0 0 0 27.136 28.188 0.808 0.808 0 0 0 0.008 0.148 27.32 27.32 0 0 0 19.636-8.324 27.324 27.324 0 0 0 7.66-19.904c-1.34-44.012 1.344-128.672 37.204-174.492a7.448 7.448 0 0 0-0.42-10.068c-0.008-0.08-0.052-0.124-0.096-0.168z" fill="#FFFFFF" fill-opacity=".2" p-id="6257"></path><path d="M326 374.308h372v40h-372z" fill="#FF9758" p-id="6258"></path><path d="M326 394.308h208a20 20 0 0 1 20 20h-228v-20z" fill="#FFB168" p-id="6259"></path><path d="M720 425.436a11.132 11.132 0 0 0-11.128-11.128H315.128A11.132 11.132 0 0 0 304 425.436v401.744a11.136 11.136 0 0 0 11.128 11.128h393.744a11.136 11.136 0 0 0 11.128-11.128V425.436z" fill="#FFBD6D" p-id="6260"></path><path d="M720 458.308v368.872a11.136 11.136 0 0 1-11.128 11.128H554v-315.224c0-35.752 29.024-64.776 64.776-64.776H720z" fill="#FFA566" p-id="6261"></path><path d="M304 794.308v-368.872a11.132 11.132 0 0 1 11.128-11.128H470v315.22c0 35.752-29.024 64.78-64.776 64.78H304z" fill="#FFDD80" p-id="6262"></path><path d="M697.484 978.308H326.516c-12.428 0-22.516-11.64-22.516-25.98v-36.404a21.8 21.8 0 0 1 14.68-20.6c21.568-6.976 37.22-29.904 37.22-57.016h312.2c0 27.112 15.652 50.04 37.088 57.404a21.392 21.392 0 0 1 14.4 20.212c0.412 15.788 0.412 36.404 0.412 36.404 0 14.34-10.088 25.98-22.516 25.98z" fill="#FF9D5A" p-id="6263"></path><path d="M490.756 978.308h-164.24c-12.428 0-22.516-11.64-22.516-25.98v-36.404a21.8 21.8 0 0 1 14.68-20.6c12.2-3.944 22.504-12.996 29.156-25.016h111.164a33.016 33.016 0 0 1 33 33v66c0 3.12-0.432 6.136-1.244 9z" fill="#FFB36E" p-id="6264"></path><path d="M701.588 894.308c1.18 0.516 2.38 0.984 3.6 1.404a21.392 21.392 0 0 1 14.4 20.212c0.412 15.788 0.412 36.404 0.412 36.404 0 14.34-10.088 25.98-22.516 25.98H326.516c-12.428 0-22.516-11.64-22.516-25.98v-36.404a21.8 21.8 0 0 1 14.68-20.6c0.952-0.308 1.896-0.648 2.824-1.016h380.084z" fill="#FFBC6D" p-id="6265"></path><path d="M421.588 894.308c1.18 0.516 2.38 0.984 3.6 1.404a21.392 21.392 0 0 1 14.4 20.212c0.412 15.788 0.412 36.404 0.412 36.404 0 14.34-10.088 25.98-22.516 25.98H326.516c-12.428 0-22.516-11.64-22.516-25.98v-36.404a21.8 21.8 0 0 1 14.68-20.6c0.952-0.308 1.896-0.648 2.824-1.016h100.084z" fill="#FFDF83" p-id="6266"></path><path d="M701.588 894.308c1.18 0.516 2.38 0.984 3.6 1.404a21.392 21.392 0 0 1 14.4 20.212c0.412 15.788 0.412 36.404 0.412 36.404 0 14.34-10.088 25.98-22.516 25.98h-90.968c-12.428 0-22.516-11.64-22.516-25.98v-36.404a21.8 21.8 0 0 1 14.68-20.6c0.952-0.308 1.896-0.648 2.824-1.016h100.084z" fill="#FF9D5A" p-id="6267"></path></svg>