<?xml version="1.0" standalone="no"?><!DOCTYPE svg PUBLIC "-//W3C//DTD SVG 1.1//EN" "http://www.w3.org/Graphics/SVG/1.1/DTD/svg11.dtd"><svg t="1766732282302" class="icon" viewBox="0 0 1024 1024" version="1.1" xmlns="http://www.w3.org/2000/svg" p-id="2725" xmlns:xlink="http://www.w3.org/1999/xlink" width="200" height="200"><path d="M804.157495 493.613911c0-22.540789-25.215899-329.25001-334.696934-329.25001-276.021013 0-327.315905 274.205371-327.315904 330.8529 0 204.686371 192.792832 236.055143 192.792832 236.055142-10.509445 54.759358 27.849909 93.135635 88.816536 65.805518 49.826181 33.499914 85.591416 2.580822 85.591415 2.580822 40.414341 21.895282 102.530552-4.511301 93.798067-68.931516 0 0 201.013989-39.964661 201.013988-237.111647z m-468.634939 81.801778c-51.039832 0-92.428478-48.129003-92.428478-107.509665 0-59.341979 41.388646-107.470983 92.428478-107.470983 50.998732 0 92.389796 48.129003 92.389795 107.470983 0.022968 59.380661-41.369305 107.509665-92.389795 107.509665z m178.202424 55.551132c-1.934105 36.858004-65.730571 48.913525-72.490269 0-0.701113-10.039216 8.790509-48.890557 36.254805-48.890557 27.44012 0 38.187702 36.858004 36.235464 48.890557z m97.036484-55.551132c-51.057964 0-92.427269-48.129003-92.427269-107.509665 0-59.341979 41.369305-107.470983 92.427269-107.470983 51.003567 0 92.391005 48.129003 92.391005 107.470983 0.016923 59.380661-41.369305 107.509665-92.391005 107.509665z m0 0" fill="#BD1D20" p-id="2726"></path></svg>